<?xml version="1.0" encoding="utf-8"?>
<!-- Generator: Adobe Illustrator 27.7.0, SVG Export Plug-In . SVG Version: 6.00 Build 0)  -->
<svg version="1.1" id="Layer_1" xmlns="http://www.w3.org/2000/svg" xmlns:xlink="http://www.w3.org/1999/xlink" x="0px" y="0px"
	 viewBox="0 0 500 500" style="enable-background:new 0 0 500 500;" xml:space="preserve">
<style type="text/css">
	.st0{fill:#F6F9FA;stroke:#201600;stroke-miterlimit:10;}
	.st1{clip-path:url(#SVGID_00000183948801686392682680000006144740250310997165_);}
	.st2{fill:#003C82;}
</style>
<rect class="st0" width="500" height="500"/>
<g>
	<defs>
		<rect id="SVGID_1_" x="16.1" y="16.1" width="467.7" height="467.7"/>
	</defs>
	<clipPath id="SVGID_00000106136286480669317820000014066859191501725325_">
		<use xlink:href="#SVGID_1_"  style="overflow:visible;"/>
	</clipPath>
	<g style="clip-path:url(#SVGID_00000106136286480669317820000014066859191501725325_);">
		<path class="st2" d="M466.8,237.7c-30.1-15.2-61.9-28.1-118.7-19.2c-0.8,0.1-2.2,0.4-4.8-0.3c-7-3-45.7-46.3-53.5-50.1
			c-6.2-4.1-13.5-6.3-21.2-6.3h-81c-0.7,0-1.4,0-2,0.2c-56.5,11.8-94.1,61.1-146.7,67.3c-6.9,0.8-13,4.3-17.2,9.8
			c-4.3,5.6-6.2,12.8-5.3,19.8c3.4,24.7,23.1,43.7,47.8,46.3l12.6,1.3c-0.5-3.2-0.8-6.4-0.8-9.8c0-33.7,27.4-61.1,61.1-61.1
			c33.7,0,61.1,27.4,61.1,61.1c0,6.9-1.2,13.6-3.3,19.8h135.6c-2.1-6.2-3.3-12.9-3.3-19.8c0-33.7,27.4-61.1,61.1-61.1
			c33.7,0,61.1,27.4,61.1,61.1c0,4.2-0.4,8.3-1.2,12.3l19.7-5.9c9.6-2.9,16-11.6,16-21.6v-16C483.9,253.7,477.3,243,466.8,237.7z
			 M218.1,218.4H114.6c23.6-14.7,46.7-31.2,74.1-37.1h29.4V218.4z M237.6,218.4v-37.1h31.1c3.8,0,7.5,1.1,10.8,3.2
			c3,2,3.7,3.2,34.4,33.9L237.6,218.4L237.6,218.4L237.6,218.4z"/>
		<path class="st2" d="M137.1,338.3c23,0,41.6-18.6,41.6-41.6c0-23-18.6-41.6-41.6-41.6c-23,0-41.6,18.6-41.6,41.6
			C95.5,319.7,114.1,338.3,137.1,338.3z"/>
		<path class="st2" d="M388.3,338.3c23,0,41.6-18.6,41.6-41.6c0-23-18.6-41.6-41.6-41.6c-23,0-41.6,18.6-41.6,41.6
			C346.7,319.7,365.3,338.3,388.3,338.3z"/>
	</g>
</g>
</svg>
