<svg width="238" height="40" viewBox="0 0 238 40" fill="none" xmlns="http://www.w3.org/2000/svg">
<g clip-path="url(#clip0_4001_34)">
<path d="M38.5416 18.95C35.9665 17.65 33.2498 16.5499 28.3872 17.3041C28.3176 17.3127 28.2006 17.3414 27.9788 17.2748C27.3784 17.0175 24.0738 13.3182 23.4077 12.9872C22.8743 12.6371 22.2494 12.4496 21.5952 12.4496H14.6659C14.6075 12.4496 14.5492 12.4537 14.495 12.4662C9.66486 13.4732 6.449 17.6943 1.94884 18.2247C1.36126 18.2955 0.84048 18.5914 0.47384 19.0622C0.102902 19.5413 -0.0595979 20.158 0.0196208 20.7581C0.311261 22.8707 1.9947 24.4958 4.11142 24.7166L5.19056 24.8291C5.14478 24.5583 5.1197 24.2791 5.1197 23.9916C5.1197 21.1124 7.46564 18.7665 10.3449 18.7665C13.2282 18.7665 15.57 21.1124 15.57 23.9916C15.57 24.5834 15.47 25.1541 15.2867 25.6834H26.8828C26.6995 25.1542 26.5995 24.5833 26.5995 23.9916C26.5995 21.1124 28.9454 18.7665 31.8247 18.7665C34.7081 18.7665 37.0499 21.1124 37.0499 23.9916C37.0499 24.35 37.0124 24.7041 36.9457 25.0417L38.6291 24.5334C39.45 24.2876 40 23.5417 40 22.6875V21.3209C40 20.3125 39.4417 19.4041 38.5416 18.95ZM17.2702 17.2958H8.41986C10.437 16.0394 12.4118 14.6277 14.7534 14.1206H17.2702V17.2958ZM18.9369 17.2958V14.1206H21.5995C21.9245 14.1206 22.2413 14.2165 22.5204 14.3956C22.7777 14.5671 22.8328 14.6668 25.4622 17.2957H18.937V17.2958H18.9369Z" fill="#003C82"/>
<path d="M10.3448 27.5502C12.3101 27.5502 13.9033 25.9571 13.9033 23.9918C13.9033 22.0265 12.3101 20.4334 10.3448 20.4334C8.37954 20.4334 6.78638 22.0265 6.78638 23.9918C6.78638 25.9571 8.37954 27.5502 10.3448 27.5502Z" fill="#003C82"/>
<path d="M31.8246 27.5502C33.7898 27.5502 35.383 25.9571 35.383 23.9918C35.383 22.0265 33.7898 20.4334 31.8246 20.4334C29.8593 20.4334 28.2661 22.0265 28.2661 23.9918C28.2661 25.9571 29.8593 27.5502 31.8246 27.5502Z" fill="#003C82"/>
</g>
<path d="M59.9631 28.5H56.5881L62.733 11.0455H66.6364L72.7898 28.5H69.4148L64.7528 14.625H64.6165L59.9631 28.5ZM60.0739 21.6562H69.2784V24.196H60.0739V21.6562ZM83.2962 22.9943V15.4091H86.3814V28.5H83.3899V26.1733H83.2536C82.9581 26.9062 82.4723 27.5057 81.7962 27.9716C81.1257 28.4375 80.299 28.6705 79.3161 28.6705C78.4581 28.6705 77.6996 28.4801 77.0405 28.0994C76.3871 27.7131 75.8757 27.1534 75.5064 26.4205C75.1371 25.6818 74.9524 24.7898 74.9524 23.7443V15.4091H78.0376V23.267C78.0376 24.0966 78.2649 24.7557 78.7195 25.2443C79.174 25.733 79.7706 25.9773 80.5092 25.9773C80.9638 25.9773 81.4041 25.8665 81.8303 25.6449C82.2564 25.4233 82.6058 25.0938 82.8786 24.6562C83.157 24.2131 83.2962 23.6591 83.2962 22.9943ZM96.0909 15.4091V17.7955H88.5653V15.4091H96.0909ZM90.4233 12.2727H93.5085V24.5625C93.5085 24.9773 93.571 25.2955 93.696 25.517C93.8267 25.733 93.9972 25.8807 94.2074 25.9602C94.4176 26.0398 94.6506 26.0795 94.9062 26.0795C95.0994 26.0795 95.2756 26.0653 95.4347 26.0369C95.5994 26.0085 95.7244 25.983 95.8097 25.9602L96.3295 28.3722C96.1648 28.429 95.929 28.4915 95.6222 28.5597C95.321 28.6278 94.9517 28.6676 94.5142 28.679C93.7415 28.7017 93.0455 28.5852 92.4261 28.3295C91.8068 28.0682 91.3153 27.6648 90.9517 27.1193C90.5938 26.5739 90.4176 25.892 90.4233 25.0739V12.2727ZM104.241 28.7557C102.962 28.7557 101.854 28.4744 100.917 27.9119C99.9794 27.3494 99.2521 26.5625 98.7351 25.5511C98.2237 24.5398 97.968 23.358 97.968 22.0057C97.968 20.6534 98.2237 19.4687 98.7351 18.4517C99.2521 17.4347 99.9794 16.6449 100.917 16.0824C101.854 15.5199 102.962 15.2386 104.241 15.2386C105.519 15.2386 106.627 15.5199 107.565 16.0824C108.502 16.6449 109.227 17.4347 109.738 18.4517C110.255 19.4687 110.513 20.6534 110.513 22.0057C110.513 23.358 110.255 24.5398 109.738 25.5511C109.227 26.5625 108.502 27.3494 107.565 27.9119C106.627 28.4744 105.519 28.7557 104.241 28.7557ZM104.258 26.2841C104.951 26.2841 105.531 26.0937 105.996 25.7131C106.462 25.3267 106.809 24.8097 107.036 24.1619C107.269 23.5142 107.386 22.7926 107.386 21.9972C107.386 21.196 107.269 20.4716 107.036 19.8239C106.809 19.1705 106.462 18.6506 105.996 18.2642C105.531 17.8778 104.951 17.6847 104.258 17.6847C103.548 17.6847 102.957 17.8778 102.485 18.2642C102.019 18.6506 101.67 19.1705 101.437 19.8239C101.21 20.4716 101.096 21.196 101.096 21.9972C101.096 22.7926 101.21 23.5142 101.437 24.1619C101.67 24.8097 102.019 25.3267 102.485 25.7131C102.957 26.0937 103.548 26.2841 104.258 26.2841ZM114.69 28.5H111.315L117.46 11.0455H121.363L127.516 28.5H124.141L119.479 14.625H119.343L114.69 28.5ZM114.8 21.6562H124.005V24.196H114.8V21.6562ZM139.815 18.8693L137.002 19.1761C136.923 18.892 136.783 18.625 136.585 18.375C136.391 18.125 136.13 17.9233 135.8 17.7699C135.471 17.6165 135.067 17.5398 134.59 17.5398C133.948 17.5398 133.408 17.679 132.971 17.9574C132.539 18.2358 132.326 18.5966 132.332 19.0398C132.326 19.4205 132.465 19.7301 132.749 19.9688C133.039 20.2074 133.516 20.4034 134.181 20.5568L136.414 21.0341C137.653 21.3011 138.573 21.7244 139.175 22.304C139.783 22.8835 140.09 23.642 140.096 24.5795C140.09 25.4034 139.849 26.1307 139.371 26.7614C138.9 27.3864 138.244 27.875 137.403 28.2273C136.562 28.5795 135.596 28.7557 134.505 28.7557C132.903 28.7557 131.613 28.4205 130.636 27.75C129.658 27.0739 129.076 26.1335 128.888 24.929L131.897 24.6392C132.033 25.2301 132.323 25.6761 132.766 25.9773C133.21 26.2784 133.786 26.429 134.496 26.429C135.229 26.429 135.817 26.2784 136.261 25.9773C136.71 25.6761 136.934 25.304 136.934 24.8608C136.934 24.4858 136.789 24.1761 136.499 23.9318C136.215 23.6875 135.772 23.5 135.17 23.3693L132.937 22.9006C131.681 22.6392 130.752 22.1989 130.15 21.5795C129.548 20.9545 129.249 20.1648 129.255 19.2102C129.249 18.4034 129.468 17.7045 129.911 17.1136C130.36 16.517 130.982 16.0568 131.778 15.733C132.579 15.4034 133.502 15.2386 134.548 15.2386C136.082 15.2386 137.289 15.5653 138.17 16.2188C139.056 16.8722 139.604 17.7557 139.815 18.8693ZM152.987 18.8693L150.174 19.1761C150.094 18.892 149.955 18.625 149.756 18.375C149.563 18.125 149.302 17.9233 148.972 17.7699C148.643 17.6165 148.239 17.5398 147.762 17.5398C147.12 17.5398 146.58 17.679 146.143 17.9574C145.711 18.2358 145.498 18.5966 145.504 19.0398C145.498 19.4205 145.637 19.7301 145.921 19.9688C146.211 20.2074 146.688 20.4034 147.353 20.5568L149.586 21.0341C150.825 21.3011 151.745 21.7244 152.347 22.304C152.955 22.8835 153.262 23.642 153.268 24.5795C153.262 25.4034 153.021 26.1307 152.543 26.7614C152.072 27.3864 151.415 27.875 150.575 28.2273C149.734 28.5795 148.768 28.7557 147.677 28.7557C146.075 28.7557 144.785 28.4205 143.808 27.75C142.83 27.0739 142.248 26.1335 142.06 24.929L145.069 24.6392C145.205 25.2301 145.495 25.6761 145.938 25.9773C146.381 26.2784 146.958 26.429 147.668 26.429C148.401 26.429 148.989 26.2784 149.433 25.9773C149.881 25.6761 150.106 25.304 150.106 24.8608C150.106 24.4858 149.961 24.1761 149.671 23.9318C149.387 23.6875 148.944 23.5 148.342 23.3693L146.109 22.9006C144.853 22.6392 143.924 22.1989 143.322 21.5795C142.719 20.9545 142.421 20.1648 142.427 19.2102C142.421 18.4034 142.64 17.7045 143.083 17.1136C143.532 16.517 144.154 16.0568 144.95 15.733C145.751 15.4034 146.674 15.2386 147.719 15.2386C149.254 15.2386 150.461 15.5653 151.342 16.2188C152.228 16.8722 152.776 17.7557 152.987 18.8693ZM164.156 22.9943V15.4091H167.241V28.5H164.249V26.1733H164.113C163.817 26.9062 163.332 27.5057 162.656 27.9716C161.985 28.4375 161.158 28.6705 160.175 28.6705C159.317 28.6705 158.559 28.4801 157.9 28.0994C157.246 27.7131 156.735 27.1534 156.366 26.4205C155.996 25.6818 155.812 24.7898 155.812 23.7443V15.4091H158.897V23.267C158.897 24.0966 159.124 24.7557 159.579 25.2443C160.033 25.733 160.63 25.9773 161.369 25.9773C161.823 25.9773 162.263 25.8665 162.69 25.6449C163.116 25.4233 163.465 25.0938 163.738 24.6562C164.016 24.2131 164.156 23.6591 164.156 22.9943ZM170.413 28.5V15.4091H173.405V17.5909H173.541C173.78 16.8352 174.189 16.2528 174.768 15.8438C175.354 15.429 176.021 15.2216 176.771 15.2216C176.942 15.2216 177.132 15.2301 177.342 15.2472C177.558 15.2585 177.737 15.2784 177.879 15.3068V18.1449C177.749 18.0994 177.541 18.0597 177.257 18.0256C176.979 17.9858 176.709 17.9659 176.447 17.9659C175.885 17.9659 175.379 18.0881 174.93 18.3324C174.487 18.571 174.138 18.9034 173.882 19.3295C173.626 19.7557 173.499 20.2472 173.499 20.804V28.5H170.413ZM185.185 28.7557C183.873 28.7557 182.739 28.483 181.785 27.9375C180.836 27.3864 180.106 26.608 179.594 25.6023C179.083 24.5909 178.827 23.4006 178.827 22.0312C178.827 20.6847 179.083 19.5028 179.594 18.4858C180.112 17.4631 180.833 16.6676 181.759 16.0994C182.685 15.5256 183.773 15.2386 185.023 15.2386C185.83 15.2386 186.592 15.3693 187.308 15.6307C188.029 15.8864 188.665 16.2841 189.217 16.8239C189.773 17.3636 190.211 18.0511 190.529 18.8864C190.847 19.7159 191.006 20.7045 191.006 21.8523V22.7983H180.276V20.7188H188.049C188.043 20.1278 187.915 19.6023 187.665 19.142C187.415 18.6761 187.066 18.3097 186.617 18.0426C186.174 17.7756 185.657 17.642 185.066 17.642C184.435 17.642 183.881 17.7955 183.404 18.1023C182.927 18.4034 182.555 18.8011 182.288 19.2955C182.026 19.7841 181.893 20.321 181.887 20.9062V22.7216C181.887 23.483 182.026 24.1364 182.305 24.6818C182.583 25.2216 182.972 25.6364 183.472 25.9261C183.972 26.2102 184.558 26.3523 185.228 26.3523C185.677 26.3523 186.083 26.2898 186.447 26.1648C186.81 26.0341 187.126 25.8438 187.393 25.5938C187.66 25.3438 187.862 25.0341 187.998 24.6648L190.879 24.9886C190.697 25.75 190.35 26.4148 189.839 26.983C189.333 27.5455 188.685 27.983 187.896 28.2955C187.106 28.6023 186.202 28.7557 185.185 28.7557ZM199.706 28.5V11.0455H206.251C207.592 11.0455 208.717 11.2955 209.626 11.7955C210.541 12.2955 211.232 12.983 211.697 13.858C212.169 14.7273 212.405 15.7159 212.405 16.8239C212.405 17.9432 212.169 18.9375 211.697 19.8068C211.226 20.6761 210.53 21.3608 209.609 21.8608C208.689 22.3551 207.555 22.6023 206.209 22.6023H201.871V20.0028H205.783C206.567 20.0028 207.209 19.8665 207.709 19.5938C208.209 19.321 208.578 18.946 208.817 18.4688C209.061 17.9915 209.183 17.4432 209.183 16.8239C209.183 16.2045 209.061 15.6591 208.817 15.1875C208.578 14.7159 208.206 14.3494 207.7 14.0881C207.2 13.821 206.555 13.6875 205.766 13.6875H202.868V28.5H199.706ZM215.015 28.5V15.4091H218.006V17.5909H218.143C218.381 16.8352 218.79 16.2528 219.37 15.8438C219.955 15.429 220.623 15.2216 221.373 15.2216C221.543 15.2216 221.734 15.2301 221.944 15.2472C222.16 15.2585 222.339 15.2784 222.481 15.3068V18.1449C222.35 18.0994 222.143 18.0597 221.859 18.0256C221.58 17.9858 221.31 17.9659 221.049 17.9659C220.487 17.9659 219.981 18.0881 219.532 18.3324C219.089 18.571 218.739 18.9034 218.484 19.3295C218.228 19.7557 218.1 20.2472 218.1 20.804V28.5H215.015ZM229.702 28.7557C228.423 28.7557 227.315 28.4744 226.378 27.9119C225.44 27.3494 224.713 26.5625 224.196 25.5511C223.685 24.5398 223.429 23.358 223.429 22.0057C223.429 20.6534 223.685 19.4687 224.196 18.4517C224.713 17.4347 225.44 16.6449 226.378 16.0824C227.315 15.5199 228.423 15.2386 229.702 15.2386C230.98 15.2386 232.088 15.5199 233.026 16.0824C233.963 16.6449 234.688 17.4347 235.199 18.4517C235.716 19.4687 235.974 20.6534 235.974 22.0057C235.974 23.358 235.716 24.5398 235.199 25.5511C234.688 26.5625 233.963 27.3494 233.026 27.9119C232.088 28.4744 230.98 28.7557 229.702 28.7557ZM229.719 26.2841C230.412 26.2841 230.991 26.0937 231.457 25.7131C231.923 25.3267 232.27 24.8097 232.497 24.1619C232.73 23.5142 232.847 22.7926 232.847 21.9972C232.847 21.196 232.73 20.4716 232.497 19.8239C232.27 19.1705 231.923 18.6506 231.457 18.2642C230.991 17.8778 230.412 17.6847 229.719 17.6847C229.009 17.6847 228.418 17.8778 227.946 18.2642C227.48 18.6506 227.131 19.1705 226.898 19.8239C226.67 20.4716 226.557 21.196 226.557 21.9972C226.557 22.7926 226.67 23.5142 226.898 24.1619C227.131 24.8097 227.48 25.3267 227.946 25.7131C228.418 26.0937 229.009 26.2841 229.719 26.2841Z" fill="#0057B8"/>
<defs>
<clipPath id="clip0_4001_34">
<rect width="40" height="40" fill="white"/>
</clipPath>
</defs>
</svg>
