<svg width="40" height="42" viewBox="0 0 40 42" fill="none" xmlns="http://www.w3.org/2000/svg"><path d="M35.39 27.555C34.4612 27.2344 33.4915 27.0476 32.51 27L26.51 22.965C24.5236 21.6623 22.1953 20.9784 19.82 21H13.49C12.5044 20.9982 11.5282 21.1908 10.617 21.5665C9.70592 21.9423 8.87779 22.494 8.18 23.19L5.885 25.5H3.5C2.70435 25.5 1.94129 25.8161 1.37868 26.3787C0.81607 26.9413 0.5 27.7044 0.5 28.5V36C0.5 36.7957 0.81607 37.5587 1.37868 38.1213C1.94129 38.6839 2.70435 39 3.5 39H6.77C7.08531 39.8687 7.66044 40.6193 8.41725 41.1497C9.17405 41.6802 10.0758 41.9647 11 41.9647C11.9242 41.9647 12.8259 41.6802 13.5828 41.1497C14.3396 40.6193 14.9147 39.8687 15.23 39H24.77C25.0853 39.8687 25.6604 40.6193 26.4172 41.1497C27.1741 41.6802 28.0758 41.9647 29 41.9647C29.9242 41.9647 30.8259 41.6802 31.5828 41.1497C32.3396 40.6193 32.9147 39.8687 33.23 39H36.5C37.2957 39 38.0587 38.6839 38.6213 38.1213C39.1839 37.5587 39.5 36.7957 39.5 36V33.24C39.498 31.981 39.1 30.7546 38.3624 29.7343C37.6248 28.714 36.5849 27.9516 35.39 27.555ZM11 39C10.7033 39 10.4133 38.912 10.1666 38.7472C9.91997 38.5824 9.72771 38.3481 9.61418 38.074C9.50065 37.7999 9.47094 37.4983 9.52882 37.2074C9.5867 36.9164 9.72956 36.6491 9.93934 36.4393C10.1491 36.2296 10.4164 36.0867 10.7074 36.0288C10.9983 35.971 11.2999 36.0007 11.574 36.1142C11.8481 36.2277 12.0824 36.42 12.2472 36.6667C12.412 36.9133 12.5 37.2033 12.5 37.5C12.5 37.8978 12.342 38.2794 12.0607 38.5607C11.7794 38.842 11.3978 39 11 39ZM10.115 27C9.68418 26.9945 9.25768 26.9133 8.855 26.76L10.355 25.26C11.1967 24.4488 12.321 23.9969 13.49 24H19.82C21.5966 23.9961 23.3345 24.518 24.815 25.5L27.05 27H10.115ZM29 39C28.7033 39 28.4133 38.912 28.1666 38.7472C27.92 38.5824 27.7277 38.3481 27.6142 38.074C27.5006 37.7999 27.4709 37.4983 27.5288 37.2074C27.5867 36.9164 27.7296 36.6491 27.9393 36.4393C28.1491 36.2296 28.4164 36.0867 28.7074 36.0288C28.9983 35.971 29.2999 36.0007 29.574 36.1142C29.8481 36.2277 30.0824 36.42 30.2472 36.6667C30.412 36.9133 30.5 37.2033 30.5 37.5C30.5 37.8978 30.342 38.2794 30.0607 38.5607C29.7794 38.842 29.3978 39 29 39ZM36.5 34.5H35C34.6022 34.5 34.2206 34.342 33.9393 34.0607C33.658 33.7794 33.5 33.3978 33.5 33C33.5 32.6022 33.658 32.2207 33.9393 31.9393C34.2206 31.658 34.6022 31.5 35 31.5H35.945C36.3063 32.0082 36.5003 32.6164 36.5 33.24V34.5Z" fill="#003C82"/><path d="M14 19.5C14.3685 19.5027 14.7251 19.3696 15.0018 19.1261C15.2784 18.8827 15.4558 18.5459 15.5 18.18C16.1014 17.6159 16.8089 17.1769 17.5814 16.8885C18.3539 16.6001 19.176 16.468 20 16.5C20.824 16.468 21.6461 16.6001 22.4186 16.8885C23.1911 17.1769 23.8986 17.6159 24.5 18.18C24.5239 18.5778 24.7048 18.9499 25.003 19.2143C25.3012 19.4787 25.6922 19.6139 26.09 19.59C26.4878 19.5661 26.8599 19.3852 27.1243 19.087C27.3887 18.7888 27.5239 18.3978 27.5 18C27.5 12.165 27.5 4.29 21.5 1.92V1.5C21.5 1.10218 21.342 0.720644 21.0607 0.43934C20.7794 0.158035 20.3978 0 20 0C19.6022 0 19.2206 0.158035 18.9393 0.43934C18.658 0.720644 18.5 1.10218 18.5 1.5V1.92C12.5 4.29 12.5 12.165 12.5 18C12.5 18.3978 12.658 18.7794 12.9393 19.0607C13.2206 19.342 13.6022 19.5 14 19.5Z" fill="#003C82"/><path d="M32 16.5C32.824 16.4681 33.6461 16.6001 34.4186 16.8885C35.1911 17.1769 35.8986 17.6159 36.5 18.18C36.5239 18.5778 36.7048 18.9499 37.003 19.2143C37.3012 19.4787 37.6922 19.6139 38.09 19.59C38.4878 19.5662 38.8599 19.3852 39.1243 19.087C39.3887 18.7889 39.5239 18.3978 39.5 18C39.5 11.4 34.355 5.40002 27.395 2.83502C30.2 6.75002 30.5 12.375 30.5 16.665C30.9923 16.5543 31.4954 16.4989 32 16.5Z" fill="#003C82"/><path d="M2 19.5C2.36852 19.5027 2.72512 19.3696 3.00178 19.1261C3.27843 18.8827 3.45579 18.5459 3.5 18.18C4.10142 17.6159 4.80893 17.1769 5.58143 16.8885C6.35394 16.6001 7.17604 16.4681 8 16.5C8.50459 16.4989 9.00772 16.5543 9.5 16.665C9.5 12.375 9.8 6.75002 12.605 2.83502C5.645 5.40002 0.5 11.4 0.5 18C0.5 18.3978 0.658035 18.7794 0.93934 19.0607C1.22064 19.342 1.60218 19.5 2 19.5Z" fill="#003C82"/></svg>
