<svg width="48" height="48" viewBox="0 0 48 48" fill="none" xmlns="http://www.w3.org/2000/svg"><path d="M24 48C37.2548 48 48 37.2548 48 24C48 10.7452 37.2548 0 24 0C10.7452 0 0 10.7452 0 24C0 37.2548 10.7452 48 24 48Z" fill="#00BA00"/><path d="M16.5058 35.705L7.72821 26.3104C6.52651 25.0243 6.59548 22.9894 7.88166 21.7877C9.16783 20.586 11.2027 20.6551 12.4044 21.9411L19.1751 29.1876L29.8921 19.1743C29.9885 19.0842 30.0892 19.0016 30.1933 18.9256L35.2332 14.2169C36.5193 13.0152 38.5544 13.0844 39.7559 14.3705C40.9576 15.6565 40.8885 17.6916 39.6025 18.8933L24.2096 33.2753L24.1932 33.2578L18.8686 38.2328L16.5058 35.705Z" fill="white"/></svg>
