<svg width="32" height="32" viewBox="0 0 32 32" fill="none" xmlns="http://www.w3.org/2000/svg"><path d="M15.5571 10.6667C15.3233 10.6654 15.0915 10.7102 14.875 10.7986C14.6586 10.887 14.4617 11.0173 14.2957 11.1819L7.18946 18.2882C7.02382 18.4538 6.89242 18.6504 6.80278 18.8669C6.71313 19.0833 6.66699 19.3153 6.66699 19.5495C6.66699 19.7838 6.71313 20.0157 6.80278 20.2322C6.89242 20.4486 7.02382 20.6452 7.18946 20.8109C7.35511 20.9765 7.55176 21.1079 7.76818 21.1976C7.9846 21.2872 8.21657 21.3333 8.45082 21.3333C8.68508 21.3333 8.91704 21.2872 9.13347 21.1976C9.34989 21.1079 9.54654 20.9765 9.71218 20.8109L15.5571 14.9305L21.4197 20.5799C21.5832 20.7616 21.7823 20.9077 22.0048 21.0089C22.2272 21.1102 22.4682 21.1644 22.7125 21.1683C22.9569 21.1722 23.1994 21.1256 23.425 21.0314C23.6505 20.9373 23.8542 20.7976 24.0233 20.6212C24.1924 20.4447 24.3233 20.2353 24.4078 20.0059C24.4922 19.7766 24.5285 19.5323 24.5142 19.2883C24.4999 19.0443 24.4355 18.8059 24.3249 18.5879C24.2143 18.37 24.0599 18.1772 23.8714 18.0217L16.7651 11.1641C16.4402 10.8509 16.0083 10.6731 15.5571 10.6667Z" fill="#003C82"/></svg>
