<svg width="49" height="48" viewBox="0 0 49 48" fill="none" xmlns="http://www.w3.org/2000/svg">
<path d="M5.76785 35.836C5.90671 36.4392 6.20173 36.9952 6.62333 37.4484C7.04491 37.9016 7.57825 38.236 8.16985 38.418L8.52985 40H8.49985V44H40.4998V40H13.8658C13.8921 39.8152 13.8874 39.6272 13.8518 39.444L13.4598 37.718L34.1738 33.006L34.5658 34.732C34.6702 35.19 34.9522 35.5876 35.3498 35.8378C35.7472 36.088 36.2278 36.17 36.6858 36.066L38.4118 35.672C38.6386 35.6206 38.8532 35.5248 39.043 35.3904C39.2328 35.256 39.3944 35.0854 39.5182 34.8886C39.6422 34.6916 39.726 34.4722 39.765 34.243C39.8042 34.0136 39.7976 33.7788 39.7458 33.552L39.2438 31.346C40.1358 30.514 40.5838 29.254 40.2938 27.98L39.1138 22.8C38.9706 22.176 38.66 21.6028 38.2152 21.1422C37.7704 20.6816 37.2084 20.351 36.5898 20.186L32.4918 13.43C31.8874 12.4374 30.9868 11.6596 29.9166 11.2064C28.8466 10.7531 27.6612 10.6474 26.5278 10.904L10.7918 14.484C9.65721 14.741 8.63233 15.3488 7.86265 16.2212C7.09295 17.0936 6.61753 18.1862 6.50385 19.344L5.72985 27.208C5.24439 27.6248 4.88173 28.1662 4.68087 28.7736C4.48001 29.3812 4.44853 30.032 4.58985 30.656L5.76785 35.836ZM11.8078 34.46C11.4678 34.5374 11.1159 34.5472 10.7722 34.4888C10.4284 34.4302 10.0995 34.3046 9.80435 34.1188C9.50915 33.9332 9.25339 33.6914 9.05171 33.4068C8.85001 33.1224 8.70633 32.801 8.62885 32.461C8.55137 32.121 8.54161 31.769 8.60015 31.4254C8.65867 31.0816 8.78433 30.7526 8.96995 30.4574C9.15557 30.1622 9.39753 29.9066 9.68199 29.7048C9.96645 29.5032 10.2878 29.3594 10.6278 29.282C11.3145 29.1256 12.0352 29.2482 12.6313 29.6232C13.2275 29.998 13.6504 30.5944 13.8068 31.281C13.9633 31.9676 13.8406 32.6884 13.4657 33.2846C13.0908 33.8806 12.4945 34.3036 11.8078 34.46ZM34.2518 29.356C33.906 29.451 33.5446 29.475 33.1892 29.4266C32.8338 29.3782 32.492 29.2584 32.1842 29.0742C31.8764 28.89 31.6092 28.6456 31.3984 28.3554C31.1878 28.0652 31.038 27.7352 30.9584 27.3856C30.8786 27.036 30.8704 26.6738 30.9344 26.3208C30.9986 25.968 31.1334 25.6318 31.3308 25.3324C31.5284 25.033 31.7844 24.7768 32.0836 24.579C32.3828 24.3814 32.719 24.2462 33.0718 24.182C33.7448 24.0594 34.4394 24.2012 35.0104 24.578C35.5816 24.9548 35.9852 25.5374 36.1374 26.2044C36.2894 26.8714 36.1784 27.5714 35.827 28.1586C35.4758 28.7458 34.9116 29.1746 34.2518 29.356ZM11.6778 18.384L27.4158 14.802C27.7312 14.7307 28.061 14.7602 28.3586 14.8861C28.6564 15.012 28.9072 15.2281 29.0758 15.504L32.2458 20.73L31.1138 20.988L11.0218 25.562L9.88585 25.82L10.4838 19.736C10.516 19.4139 10.6486 19.1101 10.8629 18.8675C11.0771 18.6249 11.3622 18.4558 11.6778 18.384ZM37.3098 8L34.4998 4L33.4998 10L38.4998 18L44.4998 20L40.4998 14.922L44.4998 13.056L40.4998 11.19L44.4998 4L37.3098 8Z" fill="#003C82"/>
</svg>
