<svg width="49" height="48" viewBox="0 0 49 48" fill="none" xmlns="http://www.w3.org/2000/svg"><path d="M41.88 29.88C40.72 30.6 39.62 31.16 38.64 31.56C37.96 31.86 37.22 32 36.5 32C35.78 32 35.04 31.86 34.36 31.56C32.62 30.84 30.5 29.64 28.44 28H9.34L12.3 21.2C12.62 20.48 13.34 20 14.12 20H22C21.44 18.76 21 17.42 20.76 16H14.12C11.74 16 9.58 17.42 8.62 19.6L4.66 28.7C4.64 28.74 4.66 28.78 4.64 28.84C2.2 30.08 0.5 32.58 0.5 35.5V43C0.5 45.76 2.74 48 5.5 48C8.26 48 10.5 45.76 10.5 43V42H34.5V43C34.5 45.76 36.74 48 39.5 48C42.26 48 44.5 45.76 44.5 43V35.5C44.5 33.24 43.48 31.22 41.88 29.88ZM12.5 38H8.5C7.4 38 6.5 37.1 6.5 36C6.5 34.9 7.4 34 8.5 34H12.5C13.6 34 14.5 34.9 14.5 36C14.5 37.1 13.6 38 12.5 38ZM36.5 38H32.5C31.4 38 30.5 37.1 30.5 36C30.5 34.9 31.4 34 32.5 34H36.5C37.6 34 38.5 34.9 38.5 36C38.5 37.1 37.6 38 36.5 38Z" fill="#003C82"/><path d="M47.482 3.65202L36.982 0.0800234C36.67 -0.0279766 36.33 -0.0279766 36.018 0.0800234L25.518 3.65202C24.908 3.85802 24.5 4.43002 24.5 5.07202V13.108C24.5 22.916 35.448 27.684 35.914 27.882C36.29 28.04 36.71 28.04 37.086 27.882C37.552 27.684 48.5 22.916 48.5 13.108V5.07202C48.5 4.43002 48.092 3.85802 47.482 3.65202ZM43.072 11.236L37.572 18.236C36.872 19.13 35.56 19.26 34.7 18.52L31.2 15.52C30.36 14.802 30.262 13.538 30.984 12.7C31.702 11.862 32.966 11.766 33.802 12.484L35.718 14.126L39.928 8.76802C40.61 7.90002 41.866 7.74603 42.736 8.43202C43.604 9.11003 43.756 10.368 43.072 11.236Z" fill="#003C82"/></svg>
