<svg width="48" height="48" viewBox="0 0 48 48" fill="none" xmlns="http://www.w3.org/2000/svg"><path d="M23.8267 -0.0575784C23.7474 -0.0431554 23.6681 -0.0215208 23.596 0.000113867C22.7378 0.194826 22.132 0.966461 22.1537 1.84627V7.38473C22.1465 8.04819 22.4926 8.66838 23.0695 9.00732C23.6465 9.33906 24.3532 9.33906 24.9301 9.00732C25.507 8.66838 25.8532 8.04819 25.846 7.38473V1.84627C25.8676 1.31261 25.6513 0.800595 25.269 0.440017C24.8796 0.0722293 24.3532 -0.108059 23.8267 -0.0575784ZM7.96136 6.46165C7.26905 6.58425 6.71376 7.08906 6.51905 7.75973C6.32434 8.43761 6.52626 9.15877 7.03828 9.63473L10.9614 13.5578C11.4085 14.1059 12.1224 14.3583 12.8147 14.1996C13.4998 14.041 14.0407 13.5001 14.1993 12.815C14.358 12.1227 14.1056 11.4088 13.5575 10.9617L9.63443 7.03858C9.25222 6.62752 8.69694 6.41838 8.13443 6.46165C8.07674 6.46165 8.01905 6.46165 7.96136 6.46165ZM39.4614 6.46165C39.0431 6.51934 38.6537 6.72848 38.3652 7.03858L34.4421 10.9617C33.8941 11.4088 33.6416 12.1227 33.8003 12.815C33.959 13.5001 34.4998 14.041 35.1849 14.1996C35.8772 14.3583 36.5912 14.1059 37.0383 13.5578L40.9614 9.63473C41.5383 9.08665 41.7041 8.22848 41.3652 7.50732C41.0191 6.77896 40.2546 6.36069 39.4614 6.46165ZM23.9998 13.154C18.0719 13.154 13.2691 17.9568 13.2691 23.8847C13.2691 29.9713 18.519 33.5121 18.519 36.6347V37.3847C18.519 38.1419 19.1537 38.7693 19.9037 38.7693H28.096C28.846 38.7693 29.4806 38.1419 29.4806 37.3847V36.6347C29.4806 33.5049 34.7306 30.0722 34.7306 23.8847C34.7306 17.9568 29.9277 13.154 23.9998 13.154ZM23.9998 16.7309C25.3556 16.7309 26.6176 17.1131 27.6921 17.7693C27.5623 17.7621 27.4181 17.7117 27.2883 17.7117C22.2474 17.7117 18.1729 21.7934 18.1729 26.7693C18.1729 27.0794 18.2017 27.3895 18.2306 27.6924C17.4229 26.5602 16.9037 25.1395 16.9037 23.654C16.9037 19.8102 20.0984 16.7309 23.9998 16.7309ZM1.32674 22.154C0.309916 22.2982 -0.404027 23.2429 -0.259796 24.2597C-0.115565 25.2766 0.829147 25.9905 1.84597 25.8463H7.38444C8.0479 25.8535 8.66809 25.5073 9.00703 24.9304C9.33876 24.3535 9.33876 23.6467 9.00703 23.0698C8.66809 22.4929 8.0479 22.1467 7.38444 22.154H1.84597C1.78828 22.154 1.73059 22.154 1.6729 22.154C1.6152 22.154 1.55751 22.154 1.49982 22.154C1.44213 22.154 1.38443 22.154 1.32674 22.154ZM40.096 22.154C39.0791 22.2982 38.3652 23.2429 38.5094 24.2597C38.6537 25.2766 39.5984 25.9905 40.6152 25.8463H46.1537C46.8171 25.8535 47.4373 25.5073 47.7763 24.9304C48.108 24.3535 48.108 23.6467 47.7763 23.0698C47.4373 22.4929 46.8171 22.1467 46.1537 22.154H40.6152C40.5575 22.154 40.4998 22.154 40.4421 22.154C40.3844 22.154 40.3267 22.154 40.2691 22.154C40.2114 22.154 40.1537 22.154 40.096 22.154ZM12.0575 33.8655C11.6392 33.9232 11.2498 34.1323 10.9614 34.4424L7.03828 38.3655C6.4902 38.8126 6.2378 39.5266 6.39645 40.2189C6.55511 40.904 7.09597 41.4448 7.78107 41.6035C8.47338 41.7621 9.18732 41.5097 9.63443 40.9617L13.5575 37.0386C14.1056 36.5121 14.2715 35.6972 13.9758 34.9977C13.6873 34.2982 12.9878 33.8511 12.2306 33.8655C12.1729 33.8655 12.1152 33.8655 12.0575 33.8655ZM35.3652 33.8655C34.6729 33.9881 34.1176 34.4929 33.9229 35.1636C33.7282 35.8415 33.9301 36.5626 34.4421 37.0386L38.3652 40.9617C38.8123 41.5097 39.5263 41.7621 40.2186 41.6035C40.9037 41.4448 41.4445 40.904 41.6032 40.2189C41.7618 39.5266 41.5094 38.8126 40.9614 38.3655L37.0383 34.4424C36.6921 34.0746 36.2162 33.8727 35.7114 33.8655C35.6537 33.8655 35.596 33.8655 35.5383 33.8655C35.4806 33.8655 35.4229 33.8655 35.3652 33.8655ZM19.846 40.6155C19.0888 40.6155 18.4614 41.2357 18.4614 42.0001V44.7693C18.4614 45.5338 19.0888 46.154 19.846 46.154H20.9998C21.6056 47.2141 22.6945 47.9424 23.9998 47.9424C25.3051 47.9424 26.394 47.2141 26.9998 46.154H28.1537C28.9109 46.154 29.5383 45.5338 29.5383 44.7693V42.0001C29.5383 41.2357 28.9109 40.6155 28.1537 40.6155H19.846Z" fill="#003C82"/></svg>
