<svg width="48" height="48" viewBox="0 0 48 48" fill="none" xmlns="http://www.w3.org/2000/svg"><path d="M30.5192 9.34615C29.9928 9.3822 29.4736 9.56249 28.9038 9.86538C26.351 11.2211 17.0913 16.4928 17.0769 16.5C15.7644 17.2716 15.3245 18.9952 16.0962 20.3077C16.8245 21.5481 18.3966 22.0096 19.6731 21.4038C19.8029 21.3389 24.2957 19.0385 26.3654 17.9423C28.5721 16.774 29.9423 18.1154 29.9423 18.1154C29.9423 18.1154 37.9111 26.0625 40.1538 28.2115C41.6106 29.6106 43.6082 28.9255 44.25 28.8461C44.8918 28.7668 48 28.1538 48 28.1538V13.6154C48 13.6154 43.2404 14.726 40.4423 15.2885C39.5841 15.4615 38.5385 14.8846 38.5385 14.8846C38.5385 14.8846 36.2163 12.9014 33.6346 10.7308C32.3293 9.6274 31.399 9.28124 30.5192 9.34615ZM18.0577 9.51922C15.1154 9.51922 9 13.5577 9 13.5577C9 13.5577 7.26923 14.6755 4.78846 13.6731L0 12V28.6154C0 28.6154 1.37019 29.0409 2.59615 29.5385C2.8774 28.7524 3.30289 28.0024 3.92308 27.4038C5.95673 25.4639 9.33894 25.4423 11.1923 27.3461C11.7476 27.9231 12.1442 28.6659 12.3462 29.4231C13.0962 29.6538 13.7596 30.0144 14.3077 30.5769C14.8702 31.1538 15.2596 31.8389 15.4615 32.5961C16.2115 32.8269 16.875 33.2452 17.4231 33.8077C18.0361 34.4423 18.4399 35.2284 18.6346 36.0577C19.4135 36.2885 20.1418 36.6851 20.7115 37.2692C21.8221 38.4086 22.2188 39.9808 21.9808 41.4808C21.9808 41.4808 22.6514 42.2668 23.0769 42.6923C23.899 43.5144 25.2548 43.5144 26.0769 42.6923C26.899 41.8702 26.899 40.5144 26.0769 39.6923C26.0481 39.6635 23.0337 36.6202 23.3077 36.3461C23.5817 36.0721 27.3966 40.0312 27.4038 40.0385C28.2188 40.8534 29.5312 40.8534 30.3462 40.0385C31.1394 39.238 31.1611 37.976 30.4038 37.1538C30.3894 37.1394 26.9567 33.4471 27.1731 33.2308C27.4183 32.9856 31.5505 37.2692 31.5577 37.2692C32.387 38.0336 33.6923 38.0192 34.5 37.2115C35.3077 36.4038 35.2716 35.0986 34.5 34.2692C34.4928 34.262 31.1106 30.6202 31.3269 30.4038C31.5433 30.1875 35.0697 33.6851 35.0769 33.6923C35.899 34.5144 37.1971 34.5144 38.0192 33.6923C38.8413 32.8702 38.8413 31.5144 38.0192 30.6923C38.0048 30.6779 33.4183 26.1562 28.7885 21.5192C28.7885 21.5192 27.4471 20.0769 25.6154 20.8846C24.3317 21.4471 22.6514 22.262 21.4038 22.8461C20.0337 23.5673 18.8221 23.7692 18.5769 23.7692C15.9231 23.7692 13.7885 21.6274 13.7885 18.9808C13.7885 17.2644 14.6827 15.7356 16.0385 14.8846C17.9495 13.5577 22.3846 11.25 22.3846 11.25C22.3846 11.25 21 9.51922 18.0577 9.51922ZM7.61538 28.1538C6.87981 28.1755 6.12981 28.4495 5.53846 29.0192C4.35577 30.1586 3.55529 32.2572 4.61538 33.4615C5.66827 34.6659 6.91587 33.9014 7.84615 33.6923C7.58654 34.6082 6.77885 35.4952 7.73077 36.6923C8.67548 37.8966 10.0313 37.1322 10.9615 36.9231C10.7019 37.8389 9.93029 38.8053 10.8462 39.9231C11.762 41.0409 13.3125 40.4062 14.3077 40.0961C13.9255 41.0841 13.0817 42.1875 14.1346 43.3846C15.1875 44.5817 17.6178 44.0048 18.8077 42.8654C19.9904 41.7332 20.0841 39.9086 19.0385 38.8269C18.3173 38.0913 17.2572 37.9399 16.2692 38.25C16.6587 37.262 16.5505 36.1226 15.8077 35.3654C15.1442 34.6803 14.1418 34.5216 13.2115 34.7308C13.4712 33.8149 13.363 32.8269 12.6923 32.1346C12.0288 31.4567 11.0264 31.2909 10.0962 31.5C10.3558 30.5841 10.2404 29.5961 9.57692 28.9038C9.05048 28.363 8.35096 28.1322 7.61538 28.1538Z" fill="#003C82"/></svg>
