<svg width="44" height="48" viewBox="0 0 44 48" fill="none" xmlns="http://www.w3.org/2000/svg"><path d="M34.2236 48.0003C34.077 48.0003 33.9306 47.9704 33.7938 47.9107C25.0586 44.0985 25.0586 38.383 25.0586 31.1469C25.0586 30.5532 25.5396 30.0722 26.1333 30.0722L42.3145 30.0721C42.9082 30.0721 43.389 30.5531 43.389 31.1468C43.389 38.383 43.389 44.0982 34.6538 47.9105C34.5165 47.9704 34.3703 48.0003 34.2236 48.0003ZM32.6673 41.6505C32.8465 41.6505 33.0183 41.5794 33.1449 41.4528L39.1085 35.4893C39.3724 35.2254 39.3725 34.7979 39.1085 34.534C38.8442 34.2699 38.4173 34.2697 38.1531 34.5339L32.6672 40.0194L30.9482 38.2999C30.6843 38.0358 30.2565 38.0359 29.9925 38.2998C29.7283 38.5636 29.7284 38.9912 29.9923 39.2551L32.1893 41.4525C32.3161 41.5794 32.4881 41.6505 32.6673 41.6505Z" fill="#003C82"/><path d="M18.5181 47.6024C9.04062 47.6024 3.24274 44.9814 1.28495 39.812C-1.29303 33.0044 3.99116 23.7344 9.29884 18.1967C9.56193 18.8987 10.1127 19.4669 10.826 19.7461C12.9836 20.5909 15.2608 21.026 17.5775 21.026C20.2136 21.026 23.63 20.3562 25.9668 19.0349C26.5395 18.711 26.9556 18.1967 27.166 17.6058C30.3213 20.7066 33.0561 24.6515 34.705 28.4763L26.1331 28.4764C24.6587 28.4764 23.4627 29.6724 23.4627 31.1469C23.4627 34.5442 23.4182 38.212 24.6738 41.4215C25.4576 43.4248 26.6595 45.02 28.148 46.3209C25.5291 47.1721 22.3034 47.6024 18.5181 47.6024ZM18.3339 36.8076C19.6412 36.5022 20.622 35.3127 20.622 33.9197C20.622 31.9535 19.502 31.3754 17.8146 30.9737C16.7414 30.7181 16.0459 30.589 16.0459 29.3431C16.0459 28.4569 16.7636 27.7356 17.6487 27.7304C18.3168 27.7345 18.9378 28.155 19.1705 28.782C19.3002 29.1317 19.6896 29.3094 20.0393 29.1799C20.3889 29.0504 20.5669 28.6602 20.4373 28.311C20.0885 27.372 19.2845 26.6827 18.3339 26.4577V25.8396C18.3339 25.4661 18.0316 25.1638 17.6581 25.1638C17.2845 25.1638 16.9824 25.4661 16.9824 25.8396V26.4567C15.6726 26.7633 14.6943 27.9414 14.6943 29.3431C14.6943 31.309 15.8143 31.8871 17.5015 32.2887C18.5751 32.5441 19.2707 32.6731 19.2707 33.9195C19.2707 34.8208 18.5488 35.5279 17.651 35.5318C17.6467 35.5318 17.6553 35.5318 17.651 35.5318C17.0228 35.5318 16.4274 35.1791 16.1743 34.5991C16.0255 34.2581 15.6252 34.1022 15.2843 34.2506C14.9436 34.3988 14.7873 34.7999 14.936 35.1401C15.3153 36.0077 16.0848 36.612 16.9824 36.8115V37.4233C16.9824 37.7968 17.2845 38.0989 17.6581 38.0989C18.0315 38.0989 18.3339 37.7968 18.3339 37.4233L18.3339 36.8076Z" fill="#003C82"/><path d="M17.5775 19.4301C15.4682 19.4301 13.3924 19.0366 11.4077 18.2601C11.054 18.1215 10.7995 17.8066 10.7387 17.4317C10.3274 14.9051 8.75587 7.84368 6.44995 5.53742C6.17124 5.25839 6.06749 4.84935 6.17977 4.47144C6.29194 4.09352 6.60253 3.80717 6.98842 3.72601C7.08265 3.70619 9.32569 3.23936 11.6041 3.23936C12.1387 3.23936 12.6312 3.26449 13.0835 3.31499L13.2698 3.65769C13.9058 4.82876 14.4871 6.05862 14.933 7.31474C15.3917 8.6065 15.7942 10.1775 15.6223 11.5548C15.5761 11.9243 15.8385 12.2632 16.2086 12.3091C16.2369 12.3124 16.2655 12.314 16.2941 12.314C16.634 12.314 16.9212 12.0595 16.9633 11.7221C17.1349 10.3465 16.8168 8.81966 16.4063 7.50931C15.9452 6.03684 15.2944 4.5906 14.5715 3.22819C14.346 2.80343 14.0971 2.3407 13.8357 1.9021C13.8586 1.33716 13.9764 0.8473 14.3231 0.477685C14.5276 0.260103 14.8986 0 15.5025 0C15.8252 0 16.1491 0.0683195 16.5593 0.154467C16.9249 0.231312 17.3398 0.318677 17.8462 0.376478C21.1368 0.751405 25.8428 1.53094 28.711 3.95745C29.1309 4.31267 29.2143 4.92799 28.9054 5.38275C28.862 5.44631 24.5975 11.7914 25.697 16.4654C25.8064 16.9295 25.5964 17.4104 25.1814 17.6458C25.053 17.7182 21.9881 19.4301 17.5775 19.4301Z" fill="#003C82"/></svg>
