<svg width="48" height="48" viewBox="0 0 48 48" fill="none" xmlns="http://www.w3.org/2000/svg"><path d="M26.8992 1.92543C28.5218 4.62254 26.6828 7.99754 25.3127 10.9398C24.13 13.4711 24.3102 16.3413 27.4761 15.9735C31.291 15.5336 32.8343 15.2307 36.0795 15.0072C39.3607 14.7836 40.392 16.1249 40.392 17.3725C40.392 19.3846 39.7213 19.536 39.7213 20.3076C39.7213 21.0793 42.2381 20.5817 42.2381 23.1129C42.2381 25.6442 40.2694 25.5648 40.2694 26.2716C40.2694 26.9783 42.1877 27.2956 42.1877 29.3221C42.1877 31.3485 39.6059 31.6153 39.6059 32.4519C39.6059 33.2884 40.4425 33.5048 40.4425 34.7596C40.4425 36.0144 37.8247 38.7692 28.5939 38.7692C12.8655 38.7692 14.7261 35.0048 7.38477 35.0048V21.0793C11.2069 21.0793 10.9977 17.6971 13.6372 15.1153C16.2982 12.512 21.3896 6.61293 22.392 1.96148C23.0554 -1.1539 25.904 0.259561 26.8992 1.92543Z" fill="#003C82"/></svg>
