<svg width="43" height="42" viewBox="0 0 43 42" fill="none" xmlns="http://www.w3.org/2000/svg"><path d="M21.6667 42C33.2647 42 42.6667 32.598 42.6667 21C42.6667 9.40202 33.2647 0 21.6667 0C10.0688 0 0.666748 9.40202 0.666748 21C0.666748 32.598 10.0688 42 21.6667 42Z" fill="#D7E6F7"/><path d="M18.1664 20.517C18.8608 20.8391 19.4024 21.3222 19.7912 21.9664C20.1801 22.6106 20.3745 23.3719 20.3745 24.2503C20.3745 25.5094 19.9996 26.5269 19.2496 27.3029C18.4997 28.0788 17.5414 28.4668 16.3748 28.4668C15.2083 28.4668 14.2431 28.0715 13.4792 27.2809C12.7154 26.4903 12.3335 25.4801 12.3335 24.2503C12.3335 23.6647 12.4029 23.0791 12.5418 22.4934C12.6807 21.9078 12.9862 21.0294 13.4584 19.8582L15.8749 13.5334H19.9996L18.1664 20.517ZM28.5048 20.517C29.1992 20.8391 29.7408 21.3222 30.1297 21.9664C30.5186 22.6106 30.713 23.3719 30.713 24.2503C30.713 25.5094 30.338 26.5269 29.5881 27.3029C28.8381 28.0788 27.8799 28.4668 26.7133 28.4668C25.5467 28.4668 24.5815 28.0715 23.8177 27.2809C23.0539 26.4903 22.672 25.4801 22.672 24.2503C22.672 23.6647 22.7414 23.0791 22.8803 22.4934C23.0192 21.9078 23.3247 21.0294 23.7969 19.8582L26.2133 13.5334H30.338L28.5048 20.517Z" fill="#202020"/></svg>
