<svg width="48" height="48" viewBox="0 0 48 48" fill="none" xmlns="http://www.w3.org/2000/svg"><path d="M43.6298 9.28129C43.262 8.86302 42.7428 8.62504 42.1947 8.6034C37.9615 8.49523 32.5961 3.96638 29.0553 2.18513C26.863 1.09619 25.4207 0.367826 24.3317 0.180326C24.2163 0.165903 24.1082 0.158691 24 0.158691C23.8918 0.158691 23.7836 0.165903 23.6683 0.180326C22.5793 0.375038 21.137 1.09619 18.9519 2.19235C15.4038 3.96638 10.0457 8.49523 5.80528 8.6034C5.2572 8.62504 4.73797 8.86302 4.37018 9.28129C3.99518 9.69956 3.80768 10.2548 3.82932 10.8246C4.74518 29.3294 11.3798 40.7813 23.0264 47.4303C23.3293 47.6034 23.661 47.6972 24 47.6972C24.3317 47.6972 24.6707 47.6034 24.9735 47.4303C36.6202 40.7813 43.2548 29.3294 44.1634 10.8246C44.1923 10.2548 44.0048 9.69956 43.6298 9.28129ZM34.3702 16.5577L24.5409 31.0601C24.1875 31.5794 23.6394 31.9255 23.0913 31.9255C22.536 31.9255 21.9303 31.6298 21.5409 31.2404L14.6106 24.3101C14.1418 23.8414 14.1418 23.0697 14.6106 22.601L16.3269 20.8847C16.7957 20.4159 17.5673 20.4159 18.036 20.8847L22.5433 25.3919L30.3678 13.839C30.7356 13.2909 31.4928 13.1467 32.0481 13.5217L34.0457 14.8774C34.601 15.2524 34.7452 16.0097 34.3702 16.5577Z" fill="#003C82"/></svg>
