<svg width="48" height="48" viewBox="0 0 48 48" fill="none" xmlns="http://www.w3.org/2000/svg"><path d="M32.9857 7.18262C29.1203 7.18262 25.8102 9.93743 23.9929 11.8341C22.1828 9.93743 18.8799 7.18262 15.0145 7.18262C8.34383 7.18262 3.69238 11.8268 3.69238 18.4759C3.69238 25.81 9.47604 30.548 15.065 35.1273C17.7044 37.2908 20.4376 39.5264 22.5289 42.0143C22.8823 42.4254 23.4015 42.6634 23.9424 42.6634H24.0506C24.5986 42.6634 25.1107 42.4254 25.464 42.0143C27.5626 39.5264 30.2885 37.2908 32.9352 35.1273C38.5241 30.548 44.3078 25.81 44.3078 18.4759C44.3078 11.8268 39.6563 7.18262 32.9857 7.18262Z" fill="#003C82"/></svg>
